<svg width="59" height="60" viewBox="0 0 59 60" fill="none" xmlns="http://www.w3.org/2000/svg">
<path fill-rule="evenodd" clip-rule="evenodd" d="M12.3044 32.9229C11.9139 32.5324 11.2807 32.5324 10.8902 32.9229C10.4996 33.3135 10.4996 33.9466 10.8902 34.3371L28.7937 52.2407L29.5008 52.9478L30.2079 52.2407L48.1114 34.3371C48.5019 33.9466 48.5019 33.3135 48.1114 32.9229C47.7209 32.5324 47.0877 32.5324 46.6972 32.9229L30.5019 49.1183L30.5019 8.05225C30.5019 7.49996 30.0541 7.05225 29.5019 7.05225C28.9496 7.05225 28.5019 7.49996 28.5019 8.05225L28.5019 49.1204L12.3044 32.9229Z" fill="white"/>
<path d="M10.8902 32.9229L10.5366 32.5694L10.5366 32.5694L10.8902 32.9229ZM12.3044 32.9229L12.6579 32.5694L12.3044 32.9229ZM10.8902 34.3371L10.5366 34.6907L10.5366 34.6907L10.8902 34.3371ZM28.7937 52.2407L28.4401 52.5942L28.7937 52.2407ZM29.5008 52.9478L29.1472 53.3013L29.5008 53.6549L29.8543 53.3013L29.5008 52.9478ZM30.2079 52.2407L30.5614 52.5942L30.2079 52.2407ZM48.1114 34.3371L48.465 34.6907L48.465 34.6907L48.1114 34.3371ZM48.1114 32.9229L48.465 32.5694L48.465 32.5694L48.1114 32.9229ZM46.6972 32.9229L46.3436 32.5694L46.3436 32.5694L46.6972 32.9229ZM30.5019 49.1183L30.0019 49.1183L30.0019 50.3254L30.8554 49.4718L30.5019 49.1183ZM28.5019 8.05225L28.0019 8.05225L28.5019 8.05225ZM28.5019 49.1204L28.1483 49.474L29.0019 50.3275L29.0019 49.1204L28.5019 49.1204ZM11.2437 33.2765C11.439 33.0812 11.7556 33.0812 11.9508 33.2765L12.6579 32.5694C12.0722 31.9836 11.1224 31.9836 10.5366 32.5694L11.2437 33.2765ZM11.2437 33.9836C11.0485 33.7883 11.0485 33.4718 11.2437 33.2765L10.5366 32.5694C9.95084 33.1552 9.95083 34.1049 10.5366 34.6907L11.2437 33.9836ZM29.1472 51.8871L11.2437 33.9836L10.5366 34.6907L28.4401 52.5942L29.1472 51.8871ZM29.8543 52.5942L29.1472 51.8871L28.4401 52.5942L29.1472 53.3013L29.8543 52.5942ZM29.8543 51.8871L29.1472 52.5942L29.8543 53.3013L30.5614 52.5942L29.8543 51.8871ZM47.7579 33.9836L29.8543 51.8871L30.5614 52.5942L48.465 34.6907L47.7579 33.9836ZM47.7578 33.2765C47.9531 33.4717 47.9531 33.7883 47.7579 33.9836L48.465 34.6907C49.0507 34.1049 49.0507 33.1552 48.465 32.5694L47.7578 33.2765ZM47.0507 33.2765C47.246 33.0812 47.5626 33.0812 47.7579 33.2765L48.465 32.5694C47.8792 31.9836 46.9294 31.9836 46.3436 32.5694L47.0507 33.2765ZM30.8554 49.4718L47.0507 33.2765L46.3436 32.5694L30.1483 48.7647L30.8554 49.4718ZM30.0019 8.05225L30.0019 49.1183L31.0019 49.1183L31.0019 8.05225L30.0019 8.05225ZM29.5019 7.55225C29.778 7.55225 30.0019 7.7761 30.0019 8.05225L31.0019 8.05225C31.0019 7.22382 30.3303 6.55225 29.5019 6.55225L29.5019 7.55225ZM29.0019 8.05225C29.0019 7.7761 29.2257 7.55225 29.5019 7.55225L29.5019 6.55225C28.6734 6.55225 28.0019 7.22382 28.0019 8.05225L29.0019 8.05225ZM29.0019 49.1204L29.0019 8.05225L28.0019 8.05225L28.0019 49.1204L29.0019 49.1204ZM11.9508 33.2765L28.1483 49.474L28.8554 48.7669L12.6579 32.5694L11.9508 33.2765Z" fill="white"/>
</svg>