<svg width="61" height="60" viewBox="0 0 61 60" fill="none" xmlns="http://www.w3.org/2000/svg">
<path fill-rule="evenodd" clip-rule="evenodd" d="M44.8198 39.6863C44.8198 40.2386 45.2675 40.6863 45.8198 40.6863C46.3721 40.6863 46.8198 40.2386 46.8198 39.6863V14.3669L46.8198 13.3669L45.8198 13.3669L20.5004 13.3669C19.9482 13.3669 19.5004 13.8146 19.5004 14.3669C19.5004 14.9192 19.9482 15.3669 20.5004 15.3669L43.4041 15.3669L14.366 44.405C13.9755 44.7955 13.9755 45.4286 14.366 45.8192C14.7566 46.2097 15.3897 46.2097 15.7803 45.8192L44.8198 16.7796L44.8198 39.6863Z" fill="#292929"/>
<path d="M45.8198 40.6863L45.8198 41.1863L45.8198 41.1863L45.8198 40.6863ZM44.8198 39.6863H44.3198H44.8198ZM46.8198 39.6863L47.3198 39.6863L47.3198 39.6863H46.8198ZM46.8198 14.3669L47.3198 14.3669L46.8198 14.3669ZM46.8198 13.3669L47.3198 13.3669L47.3198 12.8669L46.8198 12.8669V13.3669ZM45.8198 13.3669V12.8669V13.3669ZM20.5004 13.3669L20.5004 12.8669L20.5004 12.8669L20.5004 13.3669ZM19.5004 14.3669L19.0004 14.3669L19.0004 14.3669L19.5004 14.3669ZM20.5004 15.3669L20.5004 15.8669L20.5004 15.8669L20.5004 15.3669ZM43.4041 15.3669L43.7577 15.7204L44.6112 14.8669H43.4041V15.3669ZM44.8198 16.7796L45.3198 16.7796L45.3198 15.5725L44.4663 16.426L44.8198 16.7796ZM45.8198 40.1863C45.5437 40.1863 45.3198 39.9624 45.3198 39.6863L44.3198 39.6863C44.3198 40.5147 44.9914 41.1863 45.8198 41.1863L45.8198 40.1863ZM46.3198 39.6863C46.3198 39.9624 46.096 40.1863 45.8198 40.1863L45.8198 41.1863C46.6483 41.1863 47.3198 40.5147 47.3198 39.6863L46.3198 39.6863ZM46.3198 14.3669V39.6863H47.3198L47.3198 14.3669L46.3198 14.3669ZM46.3198 13.3669L46.3198 14.3669L47.3198 14.3669L47.3198 13.3669L46.3198 13.3669ZM45.8198 13.8669L46.8198 13.8669L46.8198 12.8669L45.8198 12.8669L45.8198 13.8669ZM20.5004 13.8669L45.8198 13.8669L45.8198 12.8669L20.5004 12.8669L20.5004 13.8669ZM20.0004 14.3669C20.0004 14.0908 20.2243 13.8669 20.5004 13.8669L20.5004 12.8669C19.672 12.8669 19.0004 13.5385 19.0004 14.3669L20.0004 14.3669ZM20.5004 14.8669C20.2243 14.8669 20.0004 14.643 20.0004 14.3669L19.0004 14.3669C19.0004 15.1953 19.672 15.8669 20.5004 15.8669L20.5004 14.8669ZM43.4041 14.8669L20.5004 14.8669L20.5004 15.8669L43.4041 15.8669L43.4041 14.8669ZM14.7196 44.7585L43.7577 15.7204L43.0506 15.0133L14.0125 44.0514L14.7196 44.7585ZM14.7196 45.4656C14.5243 45.2704 14.5243 44.9538 14.7196 44.7585L14.0125 44.0514C13.4267 44.6372 13.4267 45.5869 14.0125 46.1727L14.7196 45.4656ZM15.4267 45.4656C15.2314 45.6609 14.9149 45.6609 14.7196 45.4656L14.0125 46.1727C14.5983 46.7585 15.548 46.7585 16.1338 46.1727L15.4267 45.4656ZM44.4663 16.426L15.4267 45.4656L16.1338 46.1727L45.1734 17.1331L44.4663 16.426ZM45.3198 39.6863V16.7796L44.3198 16.7796L44.3198 39.6863H45.3198Z" fill="#292929"/>
</svg>