<svg width="32" height="33" viewBox="0 0 32 33" fill="none" xmlns="http://www.w3.org/2000/svg">
<path fill-rule="evenodd" clip-rule="evenodd" d="M16 0.401367C7.16344 0.401367 0 7.56481 0 16.4014C0 25.2379 7.16344 32.4014 16 32.4014C24.8366 32.4014 32 25.2379 32 16.4014C32 7.56481 24.8366 0.401367 16 0.401367ZM15.2967 12.1768C15.6188 12.6193 15.7804 13.1479 15.7804 13.7647C15.7804 14.3992 15.6188 14.911 15.2927 15.2971C15.1101 15.5129 14.8422 15.7109 14.488 15.8891C15.0258 16.0831 15.4312 16.389 15.7071 16.8077C15.9801 17.2255 16.1176 17.7343 16.1176 18.3323C16.1176 18.949 15.961 19.5024 15.6469 19.9914C15.4483 20.3151 15.1994 20.5883 14.9004 20.8101C14.5642 21.0645 14.1679 21.2378 13.7093 21.3328C13.2507 21.4268 12.755 21.4724 12.2191 21.4724H7.4668V11.068H12.5633C13.8498 11.0868 14.7599 11.4561 15.2967 12.1768ZM18.3723 12.848H22.8919V11.5531H18.3723V12.848ZM19.443 15.6733C19.155 15.9663 18.9734 16.3633 18.8991 16.8642H22.4142C22.3771 16.3296 22.1945 15.9257 21.8714 15.6475C21.5442 15.3713 21.1418 15.2337 20.6602 15.2337C20.1384 15.2337 19.731 15.3802 19.443 15.6733ZM23.8401 15.0734C23.4869 14.5546 23.0384 14.1745 22.4935 13.9349C21.9496 13.6944 21.3385 13.5736 20.6592 13.5736C19.5162 13.5736 18.5881 13.931 17.8706 14.6408C17.1551 15.3525 16.7969 16.3751 16.7969 17.7086C16.7969 19.1302 17.1923 20.1577 17.988 20.7883C18.7797 21.4199 19.6959 21.7347 20.7344 21.7347C21.9918 21.7347 22.9701 21.3605 23.6685 20.6131C24.1161 20.1419 24.3689 19.6776 24.4241 19.2222H22.342C22.2216 19.4479 22.0811 19.6241 21.9215 19.7518C21.6315 19.9865 21.2532 20.1043 20.7906 20.1043C20.3511 20.1043 19.9768 20.0073 19.6658 19.8142C19.152 19.5044 18.8831 18.9629 18.849 18.1917H24.5315C24.5405 17.5274 24.5185 17.0166 24.4633 16.6642C24.3689 16.0613 24.1622 15.5307 23.8401 15.0734ZM9.56903 16.8919V19.6667H12.1298C12.5874 19.6667 12.9446 19.6053 13.1985 19.4836C13.6611 19.2559 13.8919 18.8243 13.8919 18.1848C13.8919 17.6423 13.6691 17.271 13.2206 17.0681C12.9697 16.9552 12.6175 16.8959 12.166 16.8919H9.56903ZM9.56903 15.1704V12.8747H11.8649C12.3697 12.8747 12.7851 12.9291 13.1122 13.037C13.4895 13.1935 13.6782 13.5132 13.6782 13.9993C13.6782 14.4348 13.5347 14.7397 13.2497 14.912C12.9627 15.0842 12.5904 15.1704 12.1339 15.1704H9.56903Z" fill="#AEFF7B"/>
</svg>