<svg width="32" height="33" viewBox="0 0 32 33" fill="none" xmlns="http://www.w3.org/2000/svg">
<path fill-rule="evenodd" clip-rule="evenodd" d="M16 0.401367C7.16344 0.401367 0 7.56481 0 16.4014C0 25.2379 7.16344 32.4014 16 32.4014C24.8366 32.4014 32 25.2379 32 16.4014C32 7.56481 24.8366 0.401367 16 0.401367ZM24.3593 18.1047C24.4747 17.5429 24.5335 16.9666 24.5335 16.3895C24.5335 15.812 24.4747 15.2345 24.3593 14.674C24.2468 14.1256 24.0801 13.5863 23.8618 13.0725C23.6485 12.5665 23.3839 12.0789 23.0747 11.6245C22.7701 11.1726 22.4193 10.7499 22.0338 10.3633C21.6476 9.97882 21.2225 9.62975 20.7712 9.32435C20.3154 9.01601 19.8275 8.75179 19.3216 8.5371C18.8061 8.31948 18.2665 8.15265 17.7186 8.04112C17.1561 7.92629 16.5777 7.86803 15.9998 7.86803C15.4214 7.86803 14.8431 7.92629 14.2814 8.04112C13.7326 8.15262 13.193 8.31945 12.6779 8.5371C12.1721 8.75183 11.6837 9.01601 11.2279 9.32435C10.7766 9.62975 10.3516 9.97882 9.96614 10.3633C9.5803 10.7499 9.22943 11.1726 8.92442 11.6245C8.6169 12.0789 8.35187 12.5665 8.13771 13.0725C7.91934 13.5863 7.75227 14.1256 7.63934 14.674C7.52511 15.2345 7.4668 15.812 7.4668 16.3895C7.4668 16.9666 7.52515 17.5429 7.63931 18.1047C7.75224 18.653 7.9193 19.1915 8.13768 19.7062C8.35184 20.2117 8.61687 20.699 8.92439 21.1533C9.2294 21.6048 9.58027 22.0284 9.96611 22.4145C10.3516 22.7989 10.7766 23.1489 11.2278 23.4547C11.6837 23.7618 12.1721 24.026 12.6779 24.2403C13.1929 24.4575 13.7326 24.6239 14.2813 24.7362C14.843 24.8519 15.4214 24.911 15.9997 24.911C16.5777 24.911 17.1561 24.8519 17.7186 24.7362C18.2665 24.6239 18.8061 24.4575 19.3216 24.2403C19.8275 24.026 20.3154 23.7618 20.7712 23.4547C21.2225 23.1488 21.6475 22.7989 22.0338 22.4145C22.4192 22.0284 22.7701 21.6048 23.0747 21.1533C23.3839 20.699 23.6485 20.2118 23.8618 19.7062C24.0801 19.1915 24.2468 18.6531 24.3593 18.1047ZM8.86851 14.8891C9.34146 12.6356 10.8582 10.7657 12.8904 9.80742C12.9875 9.93686 14.3351 11.763 15.5964 14.0008C12.1343 14.9193 9.12457 14.8915 8.87551 14.8892L8.86851 14.8891ZM16.2001 15.1213C12.4479 16.243 8.84727 16.1623 8.71811 16.1574C8.71746 16.1815 8.71665 16.2054 8.71585 16.2292L8.71584 16.2296L8.71583 16.2296C8.71404 16.2828 8.71226 16.3356 8.71226 16.3895C8.71226 18.259 9.41854 19.9633 10.5794 21.2519C10.5769 21.2482 12.5712 17.7152 16.5039 16.4453C16.5989 16.4137 16.6956 16.3854 16.7914 16.3579C16.6085 15.9443 16.4089 15.5299 16.2001 15.1213ZM15.9997 9.113C17.8448 9.113 19.5295 9.79825 20.8125 10.928L20.8119 10.9289C20.7774 10.9804 19.7341 12.5408 17.0069 13.5618C15.7949 11.3395 14.467 9.56352 14.2944 9.33273L14.2826 9.31688C14.833 9.18457 15.4076 9.113 15.9997 9.113ZM17.2881 17.5637L17.2704 17.5694L17.2704 17.5694C17.2601 17.5726 17.2499 17.5759 17.2398 17.5795C12.9401 19.0763 11.5359 22.0928 11.5207 22.1257C12.7579 23.0864 14.3097 23.6661 15.9997 23.6661C17.0089 23.6661 17.9702 23.4609 18.8449 23.0894C18.7369 22.4536 18.3136 20.225 17.2881 17.5637ZM23.1947 17.5429C22.8705 19.571 21.7084 21.3218 20.072 22.4245C19.9979 21.9859 19.6095 19.8497 18.6536 17.2267C21.0058 16.8501 23.0447 17.4946 23.1947 17.5429ZM17.5678 14.6461C17.7369 14.9931 17.9007 15.3463 18.0519 15.7013C18.1057 15.8286 18.1582 15.9535 18.2094 16.0783C20.665 15.7697 23.0848 16.273 23.2761 16.3128L23.2847 16.3146C23.2681 14.5895 22.6501 13.0063 21.6276 11.7668L21.6272 11.7674C21.5988 11.8078 20.4266 13.4802 17.5678 14.6461Z" fill="#AEFF7B"/>
</svg>