<svg width="32" height="33" viewBox="0 0 32 33" fill="none" xmlns="http://www.w3.org/2000/svg">
<path fill-rule="evenodd" clip-rule="evenodd" d="M16 0.401367C7.16344 0.401367 0 7.56481 0 16.4014C0 25.2379 7.16344 32.4014 16 32.4014C24.8366 32.4014 32 25.2379 32 16.4014C32 7.56481 24.8366 0.401367 16 0.401367ZM12.4821 7.91952C13.3924 7.8781 13.6832 7.86797 16.0007 7.86797H15.9981C18.3163 7.86797 18.6061 7.8781 19.5163 7.91952C20.4248 7.96112 21.0452 8.10495 21.5892 8.31597C22.151 8.53375 22.6257 8.82531 23.1004 9.29998C23.575 9.7743 23.8666 10.2504 24.0853 10.8116C24.295 11.3542 24.439 11.9743 24.4817 12.8828C24.5226 13.793 24.5333 14.0839 24.5333 16.4014C24.5333 18.7189 24.5226 19.0091 24.4817 19.9193C24.439 20.8274 24.295 21.4477 24.0853 21.9904C23.8666 22.5515 23.575 23.0276 23.1004 23.5019C22.6262 23.9766 22.1508 24.2689 21.5898 24.4868C21.0468 24.6978 20.426 24.8417 19.5176 24.8833C18.6073 24.9247 18.3174 24.9348 15.9997 24.9348C13.6823 24.9348 13.3916 24.9247 12.4814 24.8833C11.5731 24.8417 10.9529 24.6978 10.4099 24.4868C9.84903 24.2689 9.37293 23.9766 8.89879 23.5019C8.4243 23.0276 8.13274 22.5515 7.91461 21.9902C7.70376 21.4477 7.55994 20.8276 7.51816 19.9191C7.47691 19.0089 7.4666 18.7189 7.4666 16.4014C7.4666 14.0839 7.47727 13.7928 7.51798 12.8826C7.55887 11.9745 7.70287 11.3542 7.91443 10.8115C8.1331 10.2504 8.42465 9.7743 8.89933 9.29998C9.37364 8.82549 9.84974 8.53393 10.411 8.31597C10.9536 8.10495 11.5737 7.96112 12.4821 7.91952ZM16 12.8458C17.9636 12.8458 19.5556 14.4376 19.5556 16.4014C19.5556 18.3649 17.9636 19.9569 16 19.9569C14.0362 19.9569 12.4444 18.3649 12.4444 16.4014C12.4444 14.4376 14.0362 12.8458 16 12.8458ZM21.3333 11.9569C21.3333 11.466 20.9353 11.068 20.4444 11.068C19.9535 11.068 19.5556 11.466 19.5556 11.9569C19.5556 12.4478 19.9535 12.8458 20.4444 12.8458C20.9353 12.8458 21.3333 12.4478 21.3333 11.9569Z" fill="#AEFF7B"/>
</svg>