<svg width="32" height="33" viewBox="0 0 32 33" fill="none" xmlns="http://www.w3.org/2000/svg">
<path fill-rule="evenodd" clip-rule="evenodd" d="M0 16.4014C0 25.2379 7.16344 32.4014 16 32.4014C24.8366 32.4014 32 25.2379 32 16.4014C32 7.56481 24.8366 0.401367 16 0.401367C7.16344 0.401367 0 7.56481 0 16.4014ZM13.0667 23.7347L13.3389 19.6562L13.3387 19.656L20.758 12.9607C21.0836 12.6717 20.6868 12.5308 20.2546 12.7929L11.0982 18.5696L7.14312 17.3351C6.289 17.0736 6.28287 16.4867 7.33488 16.0647L22.7469 10.1219C23.4508 9.80236 24.1302 10.291 23.8615 11.3684L21.2368 23.7368C21.0535 24.6157 20.5225 24.8259 19.7867 24.4199L15.7885 21.466L13.8667 23.3347C13.8606 23.3406 13.8546 23.3465 13.8486 23.3523C13.6336 23.5616 13.4558 23.7347 13.0667 23.7347Z" fill="#AEFF7B"/>
</svg>