<svg width="24" height="24" viewBox="0 0 24 24" fill="none" xmlns="http://www.w3.org/2000/svg">
<path d="M2 11C1.44772 11 1 11.4477 1 12C1 12.5523 1.44772 13 2 13V11ZM22.7071 12.7071C23.0976 12.3166 23.0976 11.6834 22.7071 11.2929L16.3431 4.92893C15.9526 4.53841 15.3195 4.53841 14.9289 4.92893C14.5384 5.31946 14.5384 5.95262 14.9289 6.34315L20.5858 12L14.9289 17.6569C14.5384 18.0474 14.5384 18.6805 14.9289 19.0711C15.3195 19.4616 15.9526 19.4616 16.3431 19.0711L22.7071 12.7071ZM2 13H22V11H2V13Z" fill="#292929"/>
</svg>