<svg width="207" height="207" viewBox="0 0 207 207" fill="none" xmlns="http://www.w3.org/2000/svg">
<path d="M185.13 103.04L189.549 103.364L189.475 104.376C189.813 104.732 190.219 105.019 190.694 105.235C191.175 105.453 191.921 105.654 192.933 105.838C193.945 106.029 195.336 106.208 197.105 106.376L199.447 106.598L198.838 114.894L188.757 114.153L188.661 115.454L184.242 115.129L184.389 113.121L187.089 113.319L187.681 105.246L184.982 105.048L185.13 103.04ZM190.933 107.396C190.283 107.15 189.744 106.862 189.316 106.533L188.908 112.096L197.253 112.709L197.566 108.446L196.991 108.387C195.358 108.234 194.09 108.083 193.185 107.934C192.28 107.79 191.529 107.611 190.933 107.396Z" fill="#292929"/>
<path d="M184.677 125.707L187.742 125.251L188.887 120.197L186.316 118.472L186.78 116.428L197.268 123.686L196.794 125.779L184.199 127.816L184.677 125.707ZM190.407 121.218L189.555 124.976L194.843 124.195L190.407 121.218Z" fill="#292929"/>
<path d="M183.532 129.581L194.58 133.821L192.587 139.014C192.181 140.072 191.61 140.807 190.874 141.22C190.143 141.635 189.341 141.675 188.468 141.34C187.877 141.113 187.421 140.758 187.1 140.275C186.779 139.792 186.62 139.231 186.624 138.59C186.162 139.196 185.62 139.601 185 139.805C184.383 140.016 183.74 139.993 183.073 139.737C182.138 139.378 181.527 138.776 181.239 137.929C180.956 137.084 181.037 136.083 181.48 134.928L183.532 129.581ZM191.166 138.088L192.286 135.168L189.158 133.968L188.044 136.872C187.831 137.427 187.803 137.923 187.959 138.36C188.113 138.802 188.434 139.117 188.922 139.304C189.415 139.493 189.857 139.48 190.246 139.264C190.64 139.05 190.947 138.658 191.166 138.088ZM186.407 136.438L187.587 133.365L184.336 132.117L183.126 135.268C182.89 135.884 182.849 136.405 183.004 136.829C183.159 137.254 183.486 137.562 183.984 137.754C184.524 137.961 185.005 137.942 185.429 137.698C185.85 137.459 186.176 137.039 186.407 136.438Z" fill="#292929"/>
<path d="M175.017 147.792L178.085 148.227L180.622 143.708L178.648 141.322L179.674 139.495L187.663 149.439L186.613 151.31L173.959 149.677L175.017 147.792ZM181.788 145.119L179.902 148.48L185.193 149.236L181.788 145.119Z" fill="#292929"/>
<path d="M181.09 166.407L179.949 167.861C179.148 167.233 178.713 166.465 178.643 165.556C178.573 164.656 178.871 163.781 179.537 162.933C180.203 162.085 180.979 161.589 181.867 161.447C182.76 161.308 183.606 161.553 184.407 162.181L183.271 163.629C182.859 163.306 182.428 163.174 181.977 163.232C181.522 163.295 181.135 163.53 180.816 163.937C180.49 164.352 180.352 164.786 180.403 165.238C180.45 165.695 180.679 166.085 181.09 166.407ZM172.873 151.2L182.183 158.506L180.939 160.09L174.013 154.654L177.103 164.978L175.86 166.562L166.551 159.257L167.794 157.673L174.708 163.098L171.63 152.784L172.873 151.2Z" fill="#292929"/>
<path d="M161.96 163.849L168.886 171.19L171.749 168.488L172.944 169.755L165.639 176.647L164.444 175.38L167.337 172.651L160.411 165.31L161.96 163.849Z" fill="#292929"/>
<path d="M155.735 169.398L162.696 178.967L156.109 183.758L155.085 182.35L159.95 178.811L158.071 176.229L153.82 179.321L152.816 177.94L157.066 174.847L155.037 172.058L150.079 175.665L149.055 174.257L155.735 169.398Z" fill="#292929"/>
<path d="M138.573 179.687C139.648 179.194 140.688 178.995 141.694 179.091C142.703 179.191 143.606 179.557 144.404 180.19C145.2 180.83 145.849 181.697 146.351 182.792C146.856 183.892 147.091 184.953 147.057 185.973C147.019 187.001 146.71 187.93 146.128 188.759C145.546 189.589 144.718 190.25 143.643 190.743C142.028 191.484 140.517 191.562 139.112 190.978C137.703 190.402 136.618 189.283 135.857 187.623C135.096 185.963 134.955 184.408 135.434 182.96C135.911 181.519 136.957 180.428 138.573 179.687ZM142.203 181.19C141.324 180.752 140.355 180.776 139.295 181.262C138.235 181.748 137.585 182.47 137.346 183.427C137.107 184.384 137.271 185.48 137.837 186.715C138.404 187.95 139.126 188.787 140.005 189.225C140.886 189.668 141.857 189.647 142.917 189.161C143.977 188.674 144.627 187.953 144.866 186.996C145.107 186.044 144.942 184.946 144.371 183.7C143.805 182.465 143.082 181.629 142.203 181.19Z" fill="#292929"/>
<path d="M130.265 183.27L133.489 194.656L125.185 197.008L124.71 195.333L131.014 193.547L130.236 190.8L126.838 191.763C125.716 192.081 124.728 192.014 123.874 191.564C123.015 191.116 122.435 190.36 122.134 189.296C121.835 188.242 121.934 187.308 122.429 186.493C122.926 185.684 123.733 185.12 124.85 184.804L130.265 183.27ZM126.591 190.074L129.775 189.173L128.72 185.449L125.537 186.351C124.928 186.523 124.504 186.812 124.264 187.217C124.02 187.629 123.983 188.132 124.15 188.724C124.32 189.323 124.626 189.736 125.068 189.965C125.512 190.2 126.02 190.236 126.591 190.074Z" fill="#292929"/>
<path d="M118.603 186.239L120.283 197.952L112.254 199.104L112.007 197.381L117.929 196.531L116.495 186.541L118.603 186.239Z" fill="#292929"/>
<path d="M103.331 187.384C104.514 187.389 105.541 187.646 106.414 188.155C107.287 188.67 107.953 189.383 108.411 190.292C108.864 191.207 109.088 192.267 109.084 193.472C109.079 194.682 108.847 195.743 108.387 196.654C107.921 197.571 107.25 198.284 106.373 198.792C105.496 199.3 104.467 199.552 103.284 199.548C101.507 199.541 100.104 198.977 99.0737 197.856C98.0383 196.741 97.5241 195.27 97.5311 193.444C97.5382 191.617 98.0637 190.148 99.1078 189.035C100.146 187.928 101.554 187.377 103.331 187.384ZM105.993 190.274C105.38 189.507 104.49 189.122 103.324 189.117C102.158 189.113 101.265 189.494 100.646 190.262C100.027 191.03 99.7149 192.093 99.7096 193.452C99.7044 194.811 100.008 195.874 100.622 196.641C101.235 197.413 102.124 197.802 103.291 197.806C104.457 197.811 105.35 197.429 105.969 196.661C106.588 195.899 106.9 194.833 106.905 193.463C106.911 192.104 106.607 191.042 105.993 190.274Z" fill="#292929"/>
<path d="M94.2842 187.172L92.4241 198.859L86.9314 197.984C85.8122 197.806 84.9745 197.4 84.4181 196.765C83.8609 196.136 83.6558 195.36 83.8028 194.436C83.9023 193.812 84.1549 193.292 84.5607 192.877C84.9665 192.463 85.4832 192.191 86.1108 192.063C85.422 191.736 84.9136 191.29 84.5857 190.726C84.2515 190.166 84.1406 189.532 84.253 188.826C84.4104 187.837 84.8736 187.114 85.6427 186.657C86.4109 186.206 87.4062 186.078 88.6286 186.272L94.2842 187.172ZM87.5425 196.402L90.6312 196.894L91.1578 193.585L88.0855 193.096C87.4988 193.003 87.0077 193.078 86.6125 193.321C86.2118 193.564 85.9703 193.943 85.8882 194.459C85.8052 194.981 85.9096 195.41 86.2015 195.746C86.4925 196.087 86.9395 196.306 87.5425 196.402ZM88.1708 191.405L91.4224 191.923L91.9699 188.483L88.6368 187.953C87.9848 187.849 87.4671 187.917 87.0835 188.157C86.7 188.397 86.4663 188.78 86.3824 189.307C86.2916 189.877 86.4094 190.345 86.7359 190.709C87.0569 191.072 87.5352 191.304 88.1708 191.405Z" fill="#292929"/>
<path d="M77.7474 183.399C78.8738 183.76 79.7763 184.315 80.4549 185.064C81.1318 185.818 81.5518 186.698 81.7149 187.703C81.8712 188.712 81.7655 189.79 81.3979 190.937C81.0286 192.09 80.4873 193.032 79.7738 193.762C79.0535 194.496 78.1987 194.973 77.2096 195.193C76.2205 195.414 75.1628 195.343 74.0364 194.983C72.3442 194.44 71.176 193.48 70.5318 192.101C69.8807 190.725 69.8337 189.168 70.391 187.428C70.9482 185.689 71.8923 184.446 73.2232 183.7C74.5472 182.957 76.0552 182.857 77.7474 183.399ZM79.4149 186.957C79.0615 186.041 78.3294 185.405 77.2187 185.049C76.1081 184.694 75.1418 184.788 74.3201 185.334C73.4983 185.879 72.8802 186.799 72.4656 188.093C72.051 189.387 72.0205 190.492 72.3739 191.408C72.7257 192.33 73.457 192.969 74.5676 193.324C75.6783 193.68 76.6445 193.585 77.4663 193.04C78.2863 192.5 78.9053 191.577 79.3233 190.273C79.7378 188.979 79.7684 187.874 79.4149 186.957Z" fill="#292929"/>
<path d="M69.2064 180.432L63.8778 190.997L59.4276 188.753C58.2929 188.181 57.5526 187.395 57.2067 186.394C56.8559 185.392 56.958 184.341 57.5129 183.24C58.0554 182.165 58.8401 181.482 59.8671 181.193C60.8891 180.901 61.9822 181.049 63.1463 181.636L65.5925 182.87L67.3055 179.473L69.2064 180.432ZM60.5947 187.41L62.7535 188.499L64.8158 184.41L62.657 183.321C61.9595 182.969 61.3313 182.871 60.7722 183.026C60.2083 183.179 59.7653 183.575 59.4433 184.214C59.1088 184.877 59.044 185.488 59.2487 186.047C59.4534 186.606 59.9021 187.061 60.5947 187.41Z" fill="#292929"/>
<path d="M58.5701 174.826L51.6792 184.446L50.0424 183.273L55.1696 176.115L44.9909 179.655L43.354 178.483L50.2448 168.863L51.8817 170.035L46.764 177.18L56.9332 173.653L58.5701 174.826Z" fill="#292929"/>
<path d="M47.2942 166.446L38.806 174.691L37.1559 172.992L39.8482 164.821L31.6248 167.298L30.0091 165.635L38.4973 157.39L39.8197 158.751L33.4447 164.943L40.6478 162.801L41.9185 164.11L39.6029 171.26L45.966 165.079L47.2942 166.446Z" fill="#292929"/>
<path d="M33.7655 150.421C34.4259 151.402 34.7902 152.397 34.8587 153.405C34.9226 154.416 34.7069 155.367 34.2118 156.257C33.7091 157.146 32.958 157.926 31.9584 158.599C30.9543 159.275 29.946 159.678 28.9334 159.809C27.9132 159.939 26.9467 159.783 26.0339 159.343C25.1211 158.903 24.3345 158.192 23.6742 157.211C22.6822 155.737 22.3607 154.259 22.7098 152.778C23.0513 151.295 23.9797 150.043 25.495 149.024C27.0103 148.004 28.5214 147.614 30.0284 147.853C31.5278 148.09 32.7735 148.946 33.7655 150.421ZM32.8689 154.247C33.1593 153.308 32.9789 152.356 32.3278 151.388C31.6767 150.42 30.8597 149.896 29.8767 149.815C28.8937 149.734 27.8386 150.072 26.7112 150.831C25.5839 151.59 24.875 152.438 24.5846 153.376C24.2896 154.317 24.4676 155.272 25.1188 156.239C25.7699 157.207 26.5869 157.731 27.5699 157.812C28.5483 157.897 29.6057 157.556 30.7422 156.792C31.8695 156.033 32.5784 155.185 32.8689 154.247Z" fill="#292929"/>
<path d="M16.5712 129.02L17.9267 129.999L16.3036 131.879L18.7281 132.437L18.223 134.045L15.915 133.075L16.1369 135.547L14.4589 135.569L14.665 133.078L12.375 134.065L11.8519 132.474L14.2759 131.894L12.6319 130.011L13.9955 129.033L15.2888 131.17L16.5712 129.02Z" fill="#292929"/>
<path d="M14.5446 120.736L15.8014 121.839L14.0076 123.557L16.3685 124.342L15.7135 125.895L13.5076 124.711L13.4947 127.193L11.8221 127.056L12.263 124.595L9.88981 125.361L9.51964 123.727L11.9877 123.38L10.5292 121.35L11.9793 120.505L13.0645 122.755L14.5446 120.736Z" fill="#292929"/>
<path d="M21.688 105.918L17.2614 105.712L17.3084 104.699C16.961 104.352 16.5469 104.077 16.0662 103.873C15.5801 103.668 14.8284 103.488 13.8114 103.33C12.7946 103.168 11.3996 103.026 9.62634 102.905L7.27935 102.747L7.6644 94.4378L17.7622 94.9057L17.8226 93.6033L22.2491 93.8084L22.1559 95.8198L19.4522 95.6945L19.0774 103.781L21.7812 103.906L21.688 105.918ZM15.7695 101.719C16.4253 101.948 16.9716 102.221 17.4085 102.539L17.6667 96.9665L9.30819 96.5792L9.11032 100.849L9.68657 100.892C11.3227 101.001 12.5949 101.118 13.5034 101.243C14.412 101.362 15.1674 101.521 15.7695 101.719Z" fill="#292929"/>
<path d="M21.5222 83.2326L18.4707 83.7705L17.4609 88.8534L20.0766 90.5089L19.6682 92.5647L8.98951 85.5888L9.40759 83.4844L21.9435 81.112L21.5222 83.2326ZM15.9141 87.8731L16.665 84.0933L11.4001 85.016L15.9141 87.8731Z" fill="#292929"/>
<path d="M22.5436 79.3416L11.3884 75.3933L13.2442 70.1502C13.6223 69.0819 14.1738 68.3317 14.8986 67.8997C15.6183 67.4658 16.4189 67.4048 17.3005 67.7169C17.8969 67.928 18.3621 68.2706 18.6962 68.7448C19.0302 69.219 19.2035 69.7764 19.216 70.4169C19.6624 69.7988 20.193 69.3797 20.8078 69.1596C21.4192 68.9325 22.062 68.9382 22.7362 69.1769C23.6801 69.5109 24.307 70.0975 24.6169 70.9367C24.9216 71.774 24.8674 72.7761 24.4544 73.943L22.5436 79.3416ZM14.6894 71.0382L13.6459 73.9864L16.8042 75.1043L17.8422 72.1716C18.0404 71.6115 18.0557 71.115 17.8879 70.6822C17.722 70.2441 17.3927 69.9379 16.9 69.7635C16.4022 69.5873 15.9615 69.6122 15.578 69.8383C15.1893 70.0626 14.8931 70.4625 14.6894 71.0382ZM19.4897 72.5621L18.3911 75.666L21.6739 76.8279L22.8 73.6462C23.0203 73.0239 23.0473 72.5024 22.881 72.0818C22.7148 71.6611 22.3801 71.3618 21.8771 71.1837C21.3326 70.991 20.8518 71.0221 20.4347 71.2772C20.0195 71.527 19.7045 71.9554 19.4897 72.5621Z" fill="#292929"/>
<path d="M30.6101 60.8146L27.532 60.459L25.1132 65.0421L27.1475 67.3754L26.1692 69.2291L17.9264 59.4949L18.9278 57.5975L31.6192 58.9025L30.6101 60.8146ZM23.9106 63.661L25.7094 60.2529L20.4001 59.6342L23.9106 63.661Z" fill="#292929"/>
<path d="M24.0264 42.3978L25.1301 40.915C25.9465 41.5227 26.4015 42.2797 26.495 43.186C26.5874 44.0845 26.3117 44.9663 25.6679 45.8313C25.0241 46.6962 24.2602 47.2112 23.3762 47.3762C22.4878 47.5379 21.6354 47.3149 20.8189 46.7072L21.9177 45.231C22.3369 45.5431 22.7714 45.6642 23.2212 45.5943C23.6742 45.52 24.0551 45.2755 24.3638 44.8607C24.6792 44.437 24.8058 43.9997 24.7436 43.5488C24.6847 43.0935 24.4457 42.7099 24.0264 42.3978ZM32.6286 57.39L23.1361 50.3247L24.3383 48.7095L31.4014 53.9666L28.0483 43.7249L29.2505 42.1097L38.7431 49.1751L37.5409 50.7902L30.491 45.543L33.8308 55.7748L32.6286 57.39Z" fill="#292929"/>
<path d="M42.9183 44.7431L35.782 37.6068L32.9987 40.3901L31.7676 39.159L38.8688 32.0577L40.0999 33.2889L37.2875 36.1014L44.4237 43.2376L42.9183 44.7431Z" fill="#292929"/>
<path d="M49.0536 38.9035L41.8505 29.515L48.3124 24.5573L49.3723 25.9387L44.5995 29.6005L46.5434 32.1342L50.7139 28.9345L51.7537 30.2897L47.5832 33.4894L49.6829 36.2261L54.5473 32.4939L55.6072 33.8754L49.0536 38.9035Z" fill="#292929"/>
<path d="M66.147 27.996C65.0851 28.5168 64.05 28.7426 63.0418 28.6734C62.0312 28.5992 61.1186 28.2564 60.304 27.6449C59.4919 27.0261 58.8206 26.1758 58.29 25.0941C57.7571 24.0075 57.4945 22.9537 57.5024 21.9327C57.5127 20.9044 57.7979 19.9679 58.358 19.1234C58.918 18.2789 59.729 17.5962 60.7909 17.0754C62.3863 16.2929 63.8942 16.1753 65.3145 16.7226C66.7373 17.2624 67.8509 18.3523 68.6552 19.9921C69.4594 21.6319 69.6407 23.1821 69.1989 24.6426C68.7597 26.0958 67.7424 27.2136 66.147 27.996ZM62.4784 26.5877C63.3683 27.0029 64.3368 26.9537 65.3839 26.4402C66.431 25.9266 67.0616 25.1884 67.2757 24.2256C67.4897 23.2628 67.2976 22.1714 66.6992 20.9514C66.1009 19.7314 65.3567 18.9138 64.4668 18.4986C63.5745 18.0784 62.6048 18.1251 61.5576 18.6387C60.5105 19.1522 59.8799 19.8904 59.6659 20.8532C59.4494 21.8111 59.6428 22.9049 60.246 24.1348C60.8443 25.3548 61.5885 26.1724 62.4784 26.5877Z" fill="#292929"/>
<path d="M73.9938 24.2941L70.4687 12.9981L78.7083 10.4268L79.227 12.0889L72.9724 14.0407L73.823 16.7663L77.1945 15.7141C78.3078 15.3667 79.2971 15.4066 80.1623 15.8339C81.0328 16.2596 81.6328 17.0002 81.9622 18.0558C82.2883 19.1008 82.2146 20.0373 81.741 20.8651C81.2658 21.6876 80.4742 22.2718 79.3661 22.6176L73.9938 24.2941ZM77.4857 17.3954L74.3269 18.3811L75.4799 22.0756L78.6387 21.0898C79.2426 20.9013 79.659 20.6014 79.8879 20.1899C80.1204 19.7716 80.1449 19.2683 79.9614 18.6802C79.7762 18.0868 79.4595 17.6813 79.0113 17.4639C78.5614 17.2412 78.0529 17.2184 77.4857 17.3954Z" fill="#292929"/>
<path d="M85.7609 20.9268L83.7666 9.26281L91.7622 7.89569L92.0557 9.61195L86.1586 10.6202L87.8595 20.568L85.7609 20.9268Z" fill="#292929"/>
<path d="M100.692 19.3555C99.5097 19.3874 98.4745 19.1623 97.5864 18.68C96.6982 18.1922 96.0108 17.5008 95.5244 16.6059C95.0433 15.7054 94.7864 14.6529 94.7539 13.4486C94.7212 12.2387 94.9207 11.1712 95.3525 10.246C95.7896 9.3151 96.4385 8.58214 97.299 8.04707C98.1596 7.51201 99.1811 7.2285 100.363 7.19655C102.14 7.14854 103.56 7.66875 104.624 8.75717C105.693 9.83994 106.253 11.2942 106.302 13.12C106.351 14.9457 105.871 16.4308 104.862 17.5753C103.858 18.7141 102.468 19.3075 100.692 19.3555ZM97.9415 16.5488C98.5781 17.2966 99.4793 17.6547 100.645 17.6232C101.811 17.5917 102.692 17.1827 103.287 16.3961C103.882 15.6096 104.161 14.5371 104.124 13.1788C104.088 11.8205 103.751 10.7675 103.114 10.0197C102.478 9.26644 101.576 8.90557 100.41 8.93707C99.2446 8.96858 98.3641 9.37761 97.769 10.1642C97.1737 10.9452 96.8946 12.0204 96.9316 13.3897C96.9683 14.748 97.305 15.8011 97.9415 16.5488Z" fill="#292929"/>
<path d="M109.613 19.2492L111.114 7.51143L116.631 8.21676C117.755 8.36048 118.604 8.74088 119.18 9.35798C119.756 9.96962 119.985 10.7393 119.866 11.6669C119.786 12.2945 119.55 12.8216 119.157 13.2484C118.764 13.6751 118.256 13.9623 117.632 14.11C118.331 14.4156 118.853 14.8456 119.198 15.3999C119.549 15.9495 119.679 16.579 119.589 17.2884C119.462 18.2816 119.021 19.0183 118.266 19.4986C117.512 19.9735 116.521 20.1324 115.294 19.9755L109.613 19.2492ZM116.068 9.81701L112.966 9.4204L112.541 12.7436L115.627 13.1382C116.216 13.2135 116.705 13.1234 117.092 12.868C117.485 12.6132 117.715 12.2266 117.781 11.7082C117.848 11.1843 117.731 10.7589 117.429 10.4319C117.127 10.0994 116.674 9.89445 116.068 9.81701ZM115.594 14.831L112.328 14.4134L111.886 17.8677L115.234 18.2957C115.889 18.3794 116.404 18.2955 116.78 18.0441C117.156 17.7927 117.378 17.4023 117.446 16.873C117.519 16.3 117.387 15.8367 117.049 15.483C116.717 15.1299 116.232 14.9126 115.594 14.831Z" fill="#292929"/>
<path d="M126.434 22.5104C125.298 22.1794 124.381 21.6486 123.683 20.918C122.987 20.182 122.543 19.3137 122.354 18.3129C122.171 17.3084 122.248 16.2279 122.585 15.0712C122.924 13.9092 123.44 12.9538 124.134 12.2048C124.835 11.4521 125.676 10.9525 126.659 10.706C127.642 10.4596 128.702 10.5019 129.837 10.8328C131.543 11.33 132.736 12.2593 133.417 13.6209C134.104 14.9787 134.192 16.5343 133.681 18.2878C133.17 20.0413 132.259 21.3086 130.948 22.0899C129.645 22.8674 128.14 23.0075 126.434 22.5104ZM124.673 18.9974C125.05 19.9039 125.799 20.5203 126.919 20.8467C128.038 21.173 129.002 21.0526 129.809 20.4856C130.616 19.9186 131.209 18.9828 131.59 17.6782C131.97 16.3737 131.971 15.2682 131.593 14.3616C131.217 13.4498 130.47 12.8307 129.35 12.5044C128.23 12.1781 127.267 12.2984 126.46 12.8655C125.654 13.4272 125.06 14.3656 124.677 15.6807C124.296 16.9853 124.295 18.0908 124.673 18.9974Z" fill="#292929"/>
<path d="M135.339 25.2985L140.391 14.598L144.898 16.7261C146.047 17.2686 146.808 18.0353 147.179 19.026C147.556 20.0191 147.481 21.0728 146.955 22.1872C146.441 23.2766 145.674 23.9792 144.655 24.295C143.641 24.6132 142.544 24.4939 141.365 23.9373L138.888 22.7675L137.264 26.2075L135.339 25.2985ZM143.766 18.0989L141.58 17.0666L139.624 21.208L141.811 22.2403C142.517 22.5738 143.148 22.6556 143.703 22.4856C144.262 22.318 144.695 21.9108 145 21.2641C145.317 20.5925 145.366 19.9799 145.147 19.4262C144.928 18.8725 144.468 18.4301 143.766 18.0989Z" fill="#292929"/>
<path d="M146.147 30.5975L152.789 20.8043L154.456 21.9345L149.513 29.2213L159.598 25.4224L161.264 26.5526L154.622 36.3458L152.956 35.2156L157.889 27.9424L147.813 31.7277L146.147 30.5975Z" fill="#292929"/>
<path d="M157.753 38.7426L166.029 30.2845L167.722 31.9408L165.238 40.1782L173.396 37.4926L175.054 39.1142L166.778 47.5724L165.421 46.245L171.637 39.8926L164.49 42.2171L163.187 40.9417L165.32 33.7351L159.116 40.0757L157.753 38.7426Z" fill="#292929"/>
<path d="M171.477 54.0825C170.788 53.1209 170.395 52.1373 170.297 51.1314C170.203 50.1224 170.391 49.1658 170.86 48.2615C171.337 47.3585 172.065 46.5562 173.044 45.8546C174.028 45.1499 175.024 44.7172 176.032 44.5566C177.048 44.3973 178.019 44.5242 178.944 44.9374C179.869 45.3505 180.676 46.0379 181.365 46.9994C182.4 48.444 182.765 49.9118 182.459 51.403C182.161 52.8953 181.27 54.1733 179.785 55.2369C178.3 56.3005 176.801 56.7348 175.288 56.5398C173.782 56.3462 172.512 55.527 171.477 54.0825ZM172.261 50.2319C171.998 51.1781 172.207 52.1252 172.886 53.0734C173.565 54.0215 174.397 54.5218 175.382 54.5742C176.367 54.6266 177.412 54.2571 178.516 53.4659C179.621 52.6746 180.305 51.8058 180.567 50.8597C180.835 49.9103 180.629 48.9615 179.95 48.0134C179.271 47.0652 178.439 46.565 177.454 46.5126C176.473 46.457 175.426 46.828 174.313 47.6257C173.208 48.417 172.524 49.2857 172.261 50.2319Z" fill="#292929"/>
<path d="M189.494 75.3793L188.113 74.4364L189.686 72.5143L187.248 72.0203L187.71 70.3996L190.043 71.3083L189.756 68.8429L191.433 68.777L191.293 71.2728L193.556 70.2255L194.121 71.8025L191.713 72.4458L193.406 74.285L192.068 75.2987L190.719 73.1961L189.494 75.3793Z" fill="#292929"/>
<path d="M191.724 83.5394L190.438 82.4704L192.186 80.7053L189.805 79.9835L190.418 78.4136L192.655 79.5384L192.602 77.0569L194.277 77.1495L193.902 79.6209L196.254 78.7918L196.668 80.4151L194.21 80.8284L195.722 82.819L194.295 83.702L193.15 81.4816L191.724 83.5394Z" fill="#292929"/>
</svg>
