<svg width="207" height="207" viewBox="0 0 207 207" fill="none" xmlns="http://www.w3.org/2000/svg">
<path d="M188.207 109.016C188.277 108.01 188.553 107.151 189.034 106.437C189.521 105.724 190.164 105.198 190.963 104.859C191.766 104.525 192.68 104.393 193.704 104.464C194.732 104.536 195.621 104.793 196.371 105.235C197.124 105.682 197.693 106.292 198.076 107.066C198.459 107.84 198.616 108.73 198.546 109.735C198.441 111.245 197.883 112.407 196.873 113.22C195.866 114.038 194.587 114.393 193.035 114.285C191.482 114.177 190.262 113.649 189.374 112.699C188.491 111.754 188.102 110.526 188.207 109.016ZM190.813 106.913C190.126 107.392 189.749 108.127 189.68 109.118C189.611 110.11 189.885 110.89 190.504 111.459C191.122 112.029 192.008 112.353 193.163 112.434C194.319 112.514 195.239 112.315 195.926 111.836C196.617 111.358 196.997 110.623 197.066 109.632C197.135 108.641 196.86 107.86 196.242 107.291C195.628 106.722 194.739 106.397 193.575 106.316C192.42 106.236 191.499 106.435 190.813 106.913Z" fill="#292929"/>
<path d="M187.105 118.971L195.545 120.614L196.186 117.322L197.643 117.606L196.007 126.005L194.551 125.721L195.199 122.395L186.758 120.751L187.105 118.971Z" fill="#292929"/>
<path d="M185.631 125.728L195.245 128.768L193.964 132.818C193.638 133.85 193.078 134.58 192.284 135.007C191.488 135.439 190.59 135.497 189.589 135.18C188.61 134.871 187.929 134.304 187.546 133.48C187.161 132.66 187.136 131.72 187.471 130.661L188.175 128.435L185.084 127.458L185.631 125.728ZM192.676 132.019L193.297 130.055L189.576 128.878L188.955 130.843C188.754 131.477 188.757 132.019 188.964 132.468C189.17 132.921 189.563 133.24 190.144 133.424C190.748 133.614 191.271 133.586 191.713 133.337C192.155 133.089 192.476 132.649 192.676 132.019Z" fill="#292929"/>
<path d="M182.426 135.37L191.559 139.641L190.833 141.195L184.037 138.017L188.59 145.991L187.863 147.545L178.73 143.274L179.456 141.72L186.24 144.892L181.699 136.924L182.426 135.37Z" fill="#292929"/>
<path d="M177.007 146.5L185.351 152.16L184.219 153.83L176.936 152.994L180.422 159.428L179.313 161.063L170.968 155.403L171.876 154.065L178.143 158.316L175.113 152.675L175.985 151.389L182.351 152.087L176.095 147.844L177.007 146.5Z" fill="#292929"/>
<path d="M164.192 163.018L166.652 163.975L169.636 160.72L168.463 158.358L169.669 157.041L174.362 166.844L173.127 168.192L162.947 164.376L164.192 163.018ZM170.329 162.118L168.11 164.539L172.353 166.195L170.329 162.118Z" fill="#292929"/>
<path d="M159.343 167.531L164.942 174.058L167.488 171.874L168.454 173L161.959 178.572L160.993 177.446L163.565 175.239L157.966 168.712L159.343 167.531Z" fill="#292929"/>
<path d="M154.038 171.942L159.606 180.349L158.176 181.296L154.033 175.041L153.762 184.22L152.331 185.167L146.764 176.761L148.194 175.813L152.329 182.056L152.608 172.89L154.038 171.942Z" fill="#292929"/>
<path d="M140.134 180.257L144.131 189.514L142.504 190.216L140.659 185.943L138.328 192.019L136.41 192.847L138.917 186.557L132.213 183.677L134.253 182.796L140.436 185.426L138.507 180.959L140.134 180.257Z" fill="#292929"/>
<path d="M126.603 185.157C127.573 184.882 128.475 184.851 129.309 185.062C130.145 185.279 130.858 185.705 131.448 186.342C132.034 186.985 132.467 187.8 132.747 188.788C133.028 189.78 133.087 190.703 132.925 191.558C132.76 192.419 132.378 193.16 131.779 193.783C131.181 194.405 130.397 194.854 129.427 195.128C127.971 195.541 126.689 195.41 125.581 194.734C124.471 194.065 123.704 192.981 123.28 191.484C122.856 189.986 122.94 188.659 123.533 187.502C124.123 186.351 125.146 185.569 126.603 185.157ZM129.464 186.897C128.781 186.413 127.962 186.306 127.005 186.577C126.049 186.848 125.408 187.371 125.082 188.145C124.755 188.92 124.75 189.864 125.066 190.978C125.381 192.092 125.88 192.891 126.563 193.375C127.247 193.863 128.067 193.972 129.023 193.701C129.979 193.43 130.62 192.908 130.947 192.133C131.274 191.363 131.279 190.417 130.961 189.294C130.645 188.18 130.146 187.381 129.464 186.897Z" fill="#292929"/>
<path d="M118.934 187.211L120.251 197.207L118.453 197.444L117.913 193.345L112.761 194.024L113.301 198.123L111.503 198.36L110.186 188.363L111.984 188.126L112.567 192.553L117.719 191.874L117.136 187.448L118.934 187.211Z" fill="#292929"/>
<path d="M107.14 193.579C107.132 194.596 106.926 195.497 106.521 196.282C106.117 197.066 105.545 197.673 104.806 198.104C104.062 198.534 103.209 198.745 102.248 198.738C101.02 198.728 100.022 198.421 99.2532 197.815C98.4844 197.213 97.9707 196.347 97.7123 195.215L99.543 194.885C99.8778 196.453 100.783 197.243 102.26 197.254C103.207 197.262 103.945 196.937 104.475 196.28C105.005 195.628 105.275 194.723 105.284 193.565C105.293 192.403 105.04 191.491 104.524 190.831C104.004 190.175 103.269 189.844 102.317 189.837C101.539 189.831 100.914 190.037 100.442 190.455C99.9654 190.873 99.6631 191.478 99.5351 192.269L97.7379 191.889C97.9436 190.747 98.4473 189.872 99.2489 189.264C100.05 188.661 101.077 188.364 102.329 188.374C103.341 188.382 104.213 188.604 104.946 189.041C105.679 189.483 106.229 190.092 106.598 190.868C106.967 191.644 107.148 192.548 107.14 193.579Z" fill="#292929"/>
<path d="M94.0388 188.041L92.4572 190.463L95.2453 198.369L93.2307 198.104L91.2286 192.145L87.8909 197.401L86.0226 197.154L92.1079 187.786L94.0388 188.041Z" fill="#292929"/>
<path d="M86.2526 188.407C85.9496 188.361 85.6813 188.358 85.4477 188.399C85.213 188.443 85.0002 188.552 84.8093 188.725C84.5016 188.974 84.206 189.49 83.9226 190.273C83.6391 191.057 83.1905 192.523 82.5767 194.674L82.1241 196.285L74.8818 194.382L77.4452 184.63L79.186 185.088L76.9999 193.404L80.8148 194.407L80.9428 193.976C81.6031 191.648 82.1325 190.03 82.5312 189.122C82.9287 188.219 83.3849 187.58 83.8999 187.206C84.2475 186.954 84.6239 186.803 85.0293 186.755C85.4289 186.709 85.915 186.75 86.4877 186.876L86.2526 188.407Z" fill="#292929"/>
<path d="M74.5981 183.629L70.8096 192.973L69.1284 192.291L70.4071 189.137L67.8333 188.094C66.8211 187.683 66.1242 187.069 65.7424 186.252C65.3545 185.437 65.349 184.565 65.7259 183.635C66.1046 182.701 66.7168 182.077 67.5627 181.762C68.4041 181.446 69.3309 181.493 70.3431 181.903L74.5981 183.629ZM68.5418 186.795L70.9593 187.775L72.3648 184.309L69.9473 183.329C69.4 183.107 68.9026 183.08 68.4553 183.247C68.0062 183.419 67.6698 183.781 67.4462 184.333C67.2207 184.889 67.2101 185.383 67.4144 185.814C67.6187 186.246 67.9945 186.573 68.5418 186.795Z" fill="#292929"/>
<path d="M63.3235 178.561L59.2257 186.121L62.1743 187.72L61.4673 189.024L53.9444 184.946L54.6513 183.642L57.6309 185.257L61.7287 177.697L63.3235 178.561Z" fill="#292929"/>
<path d="M51.7455 171.189L51.0992 173.749L54.6983 176.307L56.8977 174.851L58.3534 175.886L49.2051 181.754L47.715 180.695L50.244 170.122L51.7455 171.189ZM53.3966 177.168L50.7202 175.265L49.6008 179.68L53.3966 177.168Z" fill="#292929"/>
<path d="M48.3423 168.548L41.4496 175.907L40.1256 174.667L46.0137 168.381L42.324 164.925L36.4359 171.211L35.1119 169.971L41 163.685L40.1943 162.93L42.7755 160.174L44.0225 161.342L42.4459 163.026L48.3423 168.548Z" fill="#292929"/>
<path d="M39.7178 160.004L32.1132 166.624L30.922 165.256L38.5266 158.636L39.7178 160.004Z" fill="#292929"/>
<path d="M36.2265 156.217L27.8614 161.846L26.8486 160.341L30.337 157.994L29.4459 156.669C28.2525 157.28 27.0903 157.447 25.9593 157.168C24.8283 156.89 23.8807 156.182 23.1166 155.047C22.5539 154.211 22.2454 153.362 22.191 152.5C22.1339 151.635 22.3196 150.823 22.7479 150.066C23.1737 149.305 23.8124 148.638 24.6641 148.065C25.5158 147.491 26.3743 147.151 27.2397 147.043C28.1025 146.932 28.9241 147.065 29.7044 147.444C30.4822 147.819 31.1524 148.425 31.7151 149.261C32.5028 150.431 32.7984 151.605 32.602 152.783C32.4017 153.963 31.7587 154.989 30.673 155.861L31.5562 157.173L35.2138 154.712L36.2265 156.217ZM30.5017 150.077C29.9443 149.249 29.2468 148.8 28.4093 148.731C27.5717 148.662 26.6687 148.953 25.7004 149.605C24.7398 150.251 24.1358 150.974 23.8883 151.773C23.637 152.575 23.79 153.39 24.3474 154.219C24.9022 155.043 25.5971 155.488 26.432 155.553C27.2631 155.621 28.1628 155.329 29.1311 154.678C30.0956 154.029 30.7048 153.305 30.9588 152.507C31.2089 151.712 31.0565 150.902 30.5017 150.077Z" fill="#292929"/>
<path d="M16.4864 129.102L17.6383 129.941L16.2492 131.537L18.3133 132.021L17.8777 133.389L15.9143 132.555L16.0954 134.662L14.6656 134.676L14.8492 132.553L12.8948 133.387L12.4542 132.03L14.5215 131.544L13.1267 129.934L14.2918 129.105L15.3868 130.93L16.4864 129.102Z" fill="#292929"/>
<path d="M14.6068 121.579L15.6812 122.515L14.1584 123.984L16.1725 124.646L15.6195 125.971L13.7361 124.969L13.7331 127.084L12.3075 126.973L12.6752 124.875L10.6556 125.535L10.3349 124.144L12.4367 123.84L11.1874 122.115L12.4202 121.391L13.3522 123.304L14.6068 121.579Z" fill="#292929"/>
<path d="M18.308 100.946C18.2769 101.954 18.0343 102.823 17.5803 103.555C17.1215 104.286 16.4995 104.837 15.7143 105.207C14.9246 105.571 14.0166 105.738 12.9906 105.706C11.9598 105.674 11.0616 105.452 10.2958 105.039C9.52553 104.621 8.93403 104.033 8.52131 103.275C8.10859 102.517 7.91779 101.634 7.9489 100.626C7.99564 99.113 8.50817 97.9307 9.48648 97.0792C10.4603 96.2229 11.7249 95.8188 13.2804 95.8668C14.8359 95.9149 16.0755 96.3964 16.9993 97.3112C17.9185 98.2213 18.3548 99.433 18.308 100.946ZM15.785 103.148C16.4524 102.643 16.8015 101.894 16.8322 100.901C16.8628 99.9075 16.5583 99.1383 15.9186 98.5933C15.2789 98.0483 14.3804 97.7579 13.2231 97.7222C12.0658 97.6865 11.1535 97.9209 10.486 98.4255C9.81388 98.93 9.46246 99.6789 9.43178 100.672C9.40111 101.665 9.70563 102.435 10.3454 102.98C10.9804 103.524 11.8812 103.815 13.0479 103.851C14.2051 103.887 15.1175 103.652 15.785 103.148Z" fill="#292929"/>
<path d="M19.0225 90.9522L10.5251 89.633L10.0105 92.9472L8.5445 92.7196L9.85725 84.2639L11.3233 84.4915L10.8034 87.8404L19.3008 89.1597L19.0225 90.9522Z" fill="#292929"/>
<path d="M20.2297 84.1225L10.508 81.4484L11.6343 77.3536C11.9215 76.3096 12.4537 75.559 13.2309 75.1019C14.0093 74.6402 14.9047 74.5487 15.9171 74.8271C16.9069 75.0994 17.609 75.6401 18.0233 76.4493C18.4388 77.2539 18.4992 78.1918 18.2046 79.263L17.5855 81.5138L20.7108 82.3734L20.2297 84.1225ZM12.9524 78.1027L12.406 80.089L16.1686 81.124L16.715 79.1376C16.8915 78.4958 16.8678 77.9546 16.6439 77.5138C16.4212 77.0684 16.0161 76.765 15.4285 76.6033C14.8184 76.4355 14.297 76.4841 13.8643 76.7492C13.4317 77.0142 13.1277 77.4654 12.9524 78.1027Z" fill="#292929"/>
<path d="M23.0376 74.3961L13.7513 70.4683L14.4196 68.8882L21.3293 71.8107L16.4821 64.0119L17.1505 62.4318L26.4368 66.3596L25.7685 67.9397L18.8717 65.0226L23.706 72.816L23.0376 74.3961Z" fill="#292929"/>
<path d="M27.9387 63.2076L19.3728 57.889L20.4372 56.1746L27.7481 56.7165L24.0052 50.4281L25.0474 48.7496L33.6134 54.0682L32.7603 55.4421L26.3269 51.4476L29.5823 56.9615L28.7627 58.2816L22.374 57.8406L28.7955 61.8277L27.9387 63.2076Z" fill="#292929"/>
<path d="M40.2422 45.9944L37.7486 45.1269L34.8857 48.4886L36.1439 50.8069L34.9859 52.1666L29.94 42.5405L31.1253 41.1487L41.4366 44.5919L40.2422 45.9944ZM34.1423 47.1167L36.2713 44.6168L31.9712 43.1159L34.1423 47.1167Z" fill="#292929"/>
<path d="M44.6595 41.5376L38.8038 35.2402L36.3477 37.5241L35.3374 36.4376L41.604 30.6106L42.6142 31.6971L40.1323 34.0049L45.988 40.3024L44.6595 41.5376Z" fill="#292929"/>
<path d="M49.688 36.9588L43.7866 28.7834L45.1777 27.7792L49.5688 33.8623L49.4706 24.6804L50.8617 23.6763L56.7631 31.8516L55.372 32.8558L50.9892 26.7841L51.0791 35.9546L49.688 36.9588Z" fill="#292929"/>
<path d="M63.4501 27.9256L59.1113 18.8241L60.7108 18.0616L62.7138 22.2633L64.8173 16.104L66.7023 15.2054L64.4311 21.5848L71.2379 24.2131L69.2322 25.1692L62.9558 22.771L65.0496 27.1631L63.4501 27.9256Z" fill="#292929"/>
<path d="M76.637 22.5335C75.6784 22.8446 74.7781 22.9101 73.936 22.73C73.0926 22.5454 72.3642 22.146 71.7509 21.5319C71.1406 20.9119 70.6771 20.1137 70.3602 19.1372C70.0418 18.1564 69.9476 17.2358 70.0775 16.3756C70.2103 15.5095 70.5639 14.754 71.1383 14.1093C71.7126 13.4646 72.4791 12.9867 73.4377 12.6756C74.8778 12.2082 76.1638 12.291 77.2958 12.9241C78.4308 13.5512 79.2384 14.6049 79.7188 16.0852C80.1992 17.5654 80.165 18.8948 79.616 20.0734C79.0701 21.2461 78.0771 22.0661 76.637 22.5335ZM73.7126 20.9027C74.4131 21.3603 75.236 21.4358 76.1812 21.129C77.1264 20.8223 77.7474 20.2758 78.0442 19.4895C78.341 18.7032 78.3106 17.7595 77.9532 16.6582C77.5958 15.5569 77.0669 14.7775 76.3664 14.3198C75.6645 13.8576 74.8409 13.78 73.8957 14.0867C72.9504 14.3935 72.3294 14.94 72.0327 15.7263C71.7344 16.5081 71.7655 17.4541 72.1258 18.5642C72.4832 19.6655 73.0121 20.445 73.7126 20.9027Z" fill="#292929"/>
<path d="M84.3042 20.1232L82.6049 10.1846L84.393 9.87888L85.0898 13.9541L90.2116 13.0784L89.5148 9.00314L91.3029 8.69741L93.0022 18.636L91.2141 18.9417L90.4616 14.5407L85.3399 15.4165L86.0924 19.8175L84.3042 20.1232Z" fill="#292929"/>
<path d="M95.1954 13.3196C95.16 12.303 95.3278 11.3943 95.6986 10.5934C96.0695 9.79255 96.6151 9.1615 97.3354 8.70027C98.0605 8.23887 98.9032 7.99149 99.8635 7.95812C101.091 7.91547 102.102 8.18053 102.895 8.75331C103.689 9.3214 104.239 10.1653 104.545 11.285L102.73 11.6929C102.329 10.1402 101.391 9.38954 99.9151 9.44082C98.9688 9.4737 98.2447 9.82953 97.743 10.5083C97.2411 11.1824 97.0103 12.098 97.0505 13.2551C97.0909 14.4169 97.3824 15.3167 97.9252 15.9545C98.4725 16.5874 99.2217 16.8874 100.173 16.8543C100.95 16.8273 101.566 16.5948 102.02 16.1569C102.478 15.7189 102.755 15.1019 102.849 14.3059L104.661 14.6088C104.504 15.7587 104.038 16.6543 103.263 17.2957C102.487 17.9324 101.474 18.2725 100.223 18.3159C99.2116 18.3511 98.3304 18.166 97.5799 17.7605C96.8293 17.3504 96.2532 16.7654 95.8515 16.0054C95.4499 15.2455 95.2312 14.3502 95.1954 13.3196Z" fill="#292929"/>
<path d="M108.885 18.263L110.373 15.7812L107.283 7.98808L109.306 8.17588L111.536 14.0532L114.669 8.67363L116.545 8.84778L110.825 18.443L108.885 18.263Z" fill="#292929"/>
<path d="M116.873 17.5823C117.178 17.6164 117.446 17.6089 117.678 17.5597C117.911 17.5059 118.119 17.389 118.303 17.2091C118.602 16.9488 118.877 16.422 119.131 15.6284C119.384 14.8348 119.777 13.3518 120.308 11.1795L120.699 9.55214L128.009 11.1791L125.818 21.021L124.061 20.63L125.929 12.2361L122.079 11.3792L121.968 11.8153C121.396 14.1661 120.929 15.8029 120.565 16.7255C120.202 17.6437 119.77 18.2991 119.27 18.692C118.932 18.9578 118.562 19.1226 118.159 19.1866C117.761 19.2469 117.274 19.2249 116.697 19.1205L116.873 17.5823Z" fill="#292929"/>
<path d="M128.551 21.8272L131.951 12.3349L133.658 12.9466L132.511 16.1504L135.125 17.087C136.154 17.4552 136.875 18.0399 137.291 18.8408C137.712 19.639 137.753 20.5102 137.415 21.4546C137.075 22.4034 136.489 23.0524 135.657 23.4016C134.829 23.7524 133.901 23.7437 132.873 23.3754L128.551 21.8272ZM134.471 18.4135L132.015 17.5339L130.754 21.0554L133.21 21.9351C133.766 22.1342 134.264 22.1408 134.704 21.9549C135.145 21.7645 135.467 21.3891 135.667 20.8287C135.87 20.2638 135.86 19.7699 135.638 19.3468C135.416 18.9238 135.027 18.6127 134.471 18.4135Z" fill="#292929"/>
<path d="M140.349 26.5539L144.164 18.8474L141.158 17.3594L141.817 16.0298L149.485 19.8263L148.827 21.1559L145.79 19.6523L141.975 27.3588L140.349 26.5539Z" fill="#292929"/>
<path d="M152.031 33.3474L152.574 30.7636L148.875 28.3524L146.736 29.8957L145.24 28.9204L154.145 22.6891L155.676 23.6874L153.575 34.3534L152.031 33.3474ZM150.141 27.4402L152.892 29.2333L153.833 24.7771L150.141 27.4402Z" fill="#292929"/>
<path d="M155.433 35.7335L162.026 28.1049L163.398 29.2911L157.766 35.8079L161.591 39.1135L167.223 32.5968L168.596 33.783L162.964 40.2997L163.799 41.0216L161.33 43.8783L160.037 42.7611L161.545 41.0162L155.433 35.7335Z" fill="#292929"/>
<path d="M164.526 44.0236L171.859 37.1042L173.104 38.4237L165.77 45.3431L164.526 44.0236Z" fill="#292929"/>
<path d="M168.156 47.624L176.288 41.6631L177.36 43.1262L173.969 45.612L174.912 46.8993C176.08 46.2408 177.235 46.028 178.376 46.2608C179.517 46.4936 180.493 47.162 181.302 48.2659C181.898 49.0788 182.24 49.9146 182.329 50.7734C182.421 51.6361 182.268 52.4543 181.871 53.2281C181.476 54.0057 180.864 54.6979 180.036 55.3048C179.208 55.9117 178.364 56.2864 177.504 56.4289C176.646 56.5751 175.82 56.4746 175.025 56.1275C174.233 55.7841 173.539 55.206 172.943 54.3932C172.109 53.2552 171.766 52.094 171.915 50.9097C172.068 49.7225 172.669 48.6715 173.719 47.7567L172.784 46.4808L169.228 49.0871L168.156 47.624ZM174.123 53.5285C174.713 54.3338 175.428 54.7542 176.267 54.7896C177.107 54.8251 177.998 54.4978 178.939 53.8077C179.873 53.1232 180.447 52.3767 180.662 51.568C180.881 50.7566 180.696 49.9483 180.105 49.143C179.518 48.3415 178.806 47.925 177.969 47.8933C177.136 47.8589 176.248 48.1867 175.307 48.8767C174.369 49.564 173.79 50.3114 173.568 51.119C173.35 51.9239 173.535 52.727 174.123 53.5285Z" fill="#292929"/>
<path d="M189.113 74.1802L187.93 73.3856L189.258 71.7378L187.177 71.3325L187.561 69.9486L189.555 70.708L189.294 68.6092L190.723 68.5423L190.619 70.6697L192.541 69.7628L193.032 71.1029L190.984 71.6665L192.439 73.2227L191.306 74.095L190.143 72.3121L189.113 74.1802Z" fill="#292929"/>
<path d="M191.215 81.3322L190.103 80.4423L191.563 78.9104L189.523 78.3339L190.02 76.9866L191.944 77.9087L191.858 75.7955L193.287 75.8473L193.008 77.9588L194.998 77.2144L195.376 78.5906L193.289 78.9825L194.609 80.6539L193.408 81.4292L192.397 79.5561L191.215 81.3322Z" fill="#292929"/>
</svg>
