<svg width="26" height="24" viewBox="0 0 26 24" fill="none" xmlns="http://www.w3.org/2000/svg">
<path d="M2 18.2441C3.623 18.7892 5.24959 20.0685 6.59589 21.1373C7.12667 21.5587 8.23086 22.7754 7.77626 21.2638C7.44749 20.1707 6.75035 19.2383 6.39498 18.1513C5.98 16.882 5.54773 15.6981 5.04718 14.4653C4.81539 13.8943 4.82095 13.2453 4.71233 12.6433C4.66613 12.3873 4.42886 11.9102 4.90487 12.23C7.48389 13.9624 10.0801 15.8521 12.5479 17.7549C13.6031 18.5684 14.3631 19.6246 15.344 20.5047C15.7535 20.8721 16.0328 20.9147 15.7123 20.3697C15.3348 19.7278 15.2925 19.0222 15.1514 18.3032C14.8009 16.5166 14.2319 14.7676 13.6195 13.0566C13.2206 11.9423 13.0902 11.1282 12.9916 9.98628C12.9834 9.89044 12.7816 9.42651 12.9498 9.38739C13.3699 9.28971 14.1632 10.2023 14.4566 10.4165C16.4865 11.8983 18.5008 13.5187 19.9901 15.5871C20.9593 16.9331 21.2113 16.9863 20.2831 15.275C18.9189 12.7599 17.4205 10.2328 16.3653 7.56544C15.9756 6.5804 15.4291 5.64038 15.1598 4.6132C15.0993 4.38229 14.4002 2.0673 15.0008 2.00679C15.9548 1.91066 16.8463 2.8589 17.5457 3.38169C18.9232 4.41153 20.0625 5.59815 21.0114 7.04247C21.8013 8.24473 22.2956 9.67088 23.1796 10.8045C23.4882 11.2002 23.2536 12.5205 24 12.0191" stroke="#AEFF7B" stroke-width="3" stroke-linecap="round"/>
</svg>
